<svg xmlns="http://www.w3.org/2000/svg" xmlns:xlink="http://www.w3.org/1999/xlink" width="179" height="59" viewBox="0 0 179 59">
  <defs>
    <clipPath id="clip-DG-logo">
      <rect width="179" height="59"/>
    </clipPath>
  </defs>
  <g id="DG-logo" clip-path="url(#clip-DG-logo)">
    <path id="Path_1023" data-name="Path 1023" d="M40.65,61.1h.038A19.555,19.555,0,0,0,58.712,49.129L70.742,20.552H70.7A19.555,19.555,0,0,0,52.68,32.521Z" transform="translate(-11.966 -3.098)" fill="#98a4f1"/>
    <path id="Path_1025" data-name="Path 1025" d="M40.65,61.1h.038A19.555,19.555,0,0,0,58.712,49.129L70.742,20.552H70.7A19.555,19.555,0,0,0,52.68,32.521Z" transform="translate(20.803 -3.732)" fill="#98a4f1" opacity="0.13" style="mix-blend-mode: multiply;isolation: isolate"/>
    <path id="Path_1026" data-name="Path 1026" d="M40.65,61.1h.038A19.555,19.555,0,0,0,58.712,49.129L70.742,20.552H70.7A19.555,19.555,0,0,0,52.68,32.521Z" transform="translate(4.229 -3.098)" fill="#98a4f1" opacity="0.33" style="mix-blend-mode: multiply;isolation: isolate"/>
    <path id="Path_1024" data-name="Path 1024" d="M61.842,16.82h.041A20.717,20.717,0,0,0,80.977,4.141L82.662,0h-.04a20.717,20.717,0,0,0-19.1,12.679Z" transform="translate(-15.815)" fill="#003566"/>
    <path id="Path_1028" data-name="Path 1028" d="M61.842,16.82h.041A20.717,20.717,0,0,0,80.977,4.141L82.662,0h-.04a20.717,20.717,0,0,0-19.1,12.679Z" transform="translate(61.185 6.18)" fill="#003566" opacity="0.29"/>
    <path id="Path_1027" data-name="Path 1027" d="M1.462,0H3.655V-12.07H1.462ZM9.316,0h2.176V-10.183h3.961V-12.07H5.355v1.887H9.316ZM20.128,0h2.278l4.352-12.07H24.429L21.743-4.2c-.221.7-.459,1.768-.459,1.768H21.25S21.012-3.5,20.791-4.2L18.139-12.07H15.776ZM58.412,0h3.74c3.536,0,5.933-2.159,5.933-5.95,0-3.774-2.4-5.95-5.933-5.95h-3.74Zm.731-.68V-11.22h2.89c3.162,0,5.287,1.87,5.287,5.27,0,3.417-2.125,5.27-5.287,5.27ZM70.958,0h6.834V-.68h-6.1V-5.661h4.743v-.68H71.689V-11.22h5.78v-.68H70.958Zm8.517-1.275A5.151,5.151,0,0,0,83.079.2a3.153,3.153,0,0,0,3.485-3.145c0-3.859-6.086-2.992-6.086-6.154,0-1.445,1.326-2.3,2.788-2.3A3.948,3.948,0,0,1,85.9-10.37L86.309-11A4.474,4.474,0,0,0,83.3-12.1c-2.006,0-3.587,1.19-3.587,3.06,0,3.689,6.086,2.856,6.086,6.188A2.421,2.421,0,0,1,83.1-.51a4.55,4.55,0,0,1-3.128-1.326ZM89.318,0h.731V-11.9h-.731Zm3.57-5.95A5.907,5.907,0,0,0,98.719.2a5.489,5.489,0,0,0,4.063-1.751h.034s-.017.255-.017.51V0h.731V-5.423h-2.856v.68H102.8v2.295a5.491,5.491,0,0,1-4.08,1.955A5.135,5.135,0,0,1,93.653-5.95a5.194,5.194,0,0,1,5.168-5.457,6.311,6.311,0,0,1,3.706,1.207l.442-.561A6.7,6.7,0,0,0,98.821-12.1,5.968,5.968,0,0,0,92.888-5.95ZM106.505,0h.731V-9.333c0-.6-.085-1.5-.085-1.5h.034s.578.952.969,1.5L114.937,0h.68V-11.9h-.731v9.333c0,.6.085,1.5.085,1.5h-.034s-.578-.952-.969-1.5L107.185-11.9h-.68Zm11.7-6.052A5.941,5.941,0,0,0,124.117.2a5.185,5.185,0,0,0,3.5-1.292h.034s-.017.255-.017.51V0h1.87V-6.358h-3.825v1.887h1.853V-3.06A4.467,4.467,0,0,1,124.508-1.8a4.043,4.043,0,0,1-4.046-4.318,3.931,3.931,0,0,1,4.148-4.148,5.276,5.276,0,0,1,3.213,1.156l1.088-1.632a6.882,6.882,0,0,0-4.488-1.53A6.088,6.088,0,0,0,118.2-6.052Zm13.583,1.717c0,2.7,1.955,4.539,4.879,4.539,2.907,0,4.845-1.836,4.845-4.539V-12.07h-2.193v7.718a2.409,2.409,0,0,1-2.669,2.55,2.409,2.409,0,0,1-2.669-2.55V-12.07h-2.193ZM144.3,0h2.193V-12.07H144.3Zm5.117,0h4.114c3.723,0,6.154-2.244,6.154-6.052s-2.431-6.018-6.154-6.018h-4.114Zm2.193-1.887v-8.3h1.8c2.414,0,4.012,1.445,4.012,4.131,0,2.72-1.564,4.165-4.012,4.165ZM161.942,0h7.5V-1.887h-5.3V-5.134H168.2V-7.021h-4.063v-3.162h5.032V-12.07h-7.225Z" transform="translate(6 39)" fill="#394c4d"/>
  </g>
</svg>
